<svg width="54" height="65" viewBox="0 0 54 65" fill="none" xmlns="http://www.w3.org/2000/svg">
<g filter="url(#filter0_d_51483_172)">
<path d="M44.25 0H9.75C6.57436 0 4 2.50905 4 5.60412V50.4371C4 53.5322 6.57436 56.0412 9.75 56.0412H44.25C47.4256 56.0412 50 53.5322 50 50.4371V5.60412C50 2.50905 47.4256 0 44.25 0Z" fill="white"/>
<path d="M35.625 30.8227C35.625 31.5658 35.3221 32.2785 34.7829 32.804C34.2438 33.3295 33.5125 33.6247 32.75 33.6247H29.875V36.4268C29.875 37.1699 29.5721 37.8827 29.0329 38.4082C28.4938 38.9336 27.7625 39.2289 27 39.2289C26.2375 39.2289 25.5062 38.9336 24.9671 38.4082C24.4279 37.8827 24.125 37.1699 24.125 36.4268V33.6247H21.25C20.4875 33.6247 19.7562 33.3295 19.2171 32.804C18.6779 32.2785 18.375 31.5658 18.375 30.8227C18.375 30.0795 18.6779 29.3668 19.2171 28.8413C19.7562 28.3158 20.4875 28.0206 21.25 28.0206H24.125V25.2186C24.125 24.4754 24.4279 23.7627 24.9671 23.2372C25.5062 22.7117 26.2375 22.4165 27 22.4165C27.7625 22.4165 28.4938 22.7117 29.0329 23.2372C29.5721 23.7627 29.875 24.4754 29.875 25.2186V28.0206H32.75C33.5125 28.0206 34.2438 28.3158 34.7829 28.8413C35.3221 29.3668 35.625 30.0795 35.625 30.8227ZM38.5 0H15.5V2.80206C15.5 4.28837 16.1058 5.7138 17.1841 6.76477C18.2625 7.81575 19.725 8.40618 21.25 8.40618H32.75C34.275 8.40618 35.7375 7.81575 36.8159 6.76477C37.8942 5.7138 38.5 4.28837 38.5 2.80206V0Z" fill="#419F91"/>
</g>
<defs>
<filter id="filter0_d_51483_172" x="0" y="0" width="54" height="64.0413" filterUnits="userSpaceOnUse" color-interpolation-filters="sRGB">
<feFlood flood-opacity="0" result="BackgroundImageFix"/>
<feColorMatrix in="SourceAlpha" type="matrix" values="0 0 0 0 0 0 0 0 0 0 0 0 0 0 0 0 0 0 127 0" result="hardAlpha"/>
<feOffset dy="4"/>
<feGaussianBlur stdDeviation="2"/>
<feComposite in2="hardAlpha" operator="out"/>
<feColorMatrix type="matrix" values="0 0 0 0 0 0 0 0 0 0 0 0 0 0 0 0 0 0 0.25 0"/>
<feBlend mode="normal" in2="BackgroundImageFix" result="effect1_dropShadow_51483_172"/>
<feBlend mode="normal" in="SourceGraphic" in2="effect1_dropShadow_51483_172" result="shape"/>
</filter>
</defs>
</svg>
